HIERARCHY
ROOT hip
{
  OFFSET 0 0 0
  CHANNELS 6 Xposition Yposition Zposition Zrotation Yrotation Xrotation
  JOINT abdomen
  {
    OFFSET 0 20.6881 -0.73152
    CHANNELS 3 Zrotation Xrotation Yrotation
    JOINT chest
    {
      OFFSET 0 11.7043 -0.48768
      CHANNELS 3 Zrotation Xrotation Yrotation
      JOINT neck
      {
        OFFSET 0 22.1894 -2.19456
        CHANNELS 3 Zrotation Xrotation Yrotation
        JOINT head
        {
          OFFSET -0.24384 7.07133 1.2192
          CHANNELS 3 Zrotation Xrotation Yrotation
          JOINT leftEye
          {
            OFFSET 4.14528 8.04674 8.04672
            CHANNELS 3 Zrotation Xrotation Yrotation
            End Site
            {
              OFFSET 1 0 0
            }
          }
          JOINT rightEye
          {
            OFFSET -3.6576 8.04674 8.04672
            CHANNELS 3 Zrotation Xrotation Yrotation
            End Site
            {
              OFFSET 1 0 0
            }
          }
        }
      }
      JOINT rCollar
      {
        OFFSET -2.68224 19.2634 -4.8768
        CHANNELS 3 Zrotation Xrotation Yrotation
        JOINT rShldr
        {
          OFFSET -8.77824 -1.95073 1.46304
          CHANNELS 3 Zrotation Xrotation Yrotation
          JOINT rForeArm
          {
            OFFSET -28.1742 -1.7115 0.48768
            CHANNELS 3 Zrotation Xrotation Yrotation
            JOINT rHand
            {
              OFFSET -22.5879 0.773209 7.07136
              CHANNELS 3 Zrotation Xrotation Yrotation
              JOINT rThumb1
              {
                OFFSET -1.2192 -0.487915 3.41376
                CHANNELS 3 Zrotation Xrotation Yrotation
                JOINT rThumb2
                {
                  OFFSET -3.37035 -0.52449 3.41376
                  CHANNELS 3 Zrotation Xrotation Yrotation
                  End Site
                  {
                    OFFSET -1.78271 -1.18214 1.43049
                  }
                }
              }
              JOINT rIndex1
              {
                OFFSET -7.75947 0.938293 5.60832
                CHANNELS 3 Zrotation Xrotation Yrotation
                JOINT rIndex2
                {
                  OFFSET -2.54057 -0.884171 1.56538
                  CHANNELS 3 Zrotation Xrotation Yrotation
                  End Site
                  {
                    OFFSET -1.62519 -0.234802 1.16502
                  }
                }
              }
              JOINT rMid1
              {
                OFFSET -8.24714 1.18213 3.41376
                CHANNELS 3 Zrotation Xrotation Yrotation
                JOINT rMid2
                {
                  OFFSET -3.10165 -0.590103 1.0647
                  CHANNELS 3 Zrotation Xrotation Yrotation
                  End Site
                  {
                    OFFSET -2.48547 -0.328903 0.83742
                  }
                }
              }
              JOINT rRing1
              {
                OFFSET -8.82822 0.546677 1.51678
                CHANNELS 3 Zrotation Xrotation Yrotation
                JOINT rRing2
                {
                  OFFSET -2.60934 -0.819778 -0.0198488
                  CHANNELS 3 Zrotation Xrotation Yrotation
                  End Site
                  {
                    OFFSET -2.33842 -0.294052 0.168128
                  }
                }
              }
              JOINT rPinky1
              {
                OFFSET -8.27202 -0.0477905 -0.4584
                CHANNELS 3 Zrotation Xrotation Yrotation
                JOINT rPinky2
                {
                  OFFSET -1.82734 -0.647385 -0.700984
                  CHANNELS 3 Zrotation Xrotation Yrotation
                  End Site
                  {
                    OFFSET -1.69225 -0.51767 -0.607171
                  }
                }
              }
            }
          }
        }
      }
      JOINT lCollar
      {
        OFFSET 2.68224 19.2634 -4.8768
        CHANNELS 3 Zrotation Xrotation Yrotation
        JOINT lShldr
        {
          OFFSET 8.77824 -1.95073 1.46304
          CHANNELS 3 Zrotation Xrotation Yrotation
          JOINT lForeArm
          {
            OFFSET 28.1742 -1.7115 0.48768
            CHANNELS 3 Zrotation Xrotation Yrotation
            JOINT lHand
            {
              OFFSET 22.5879 0.773209 7.07136
              CHANNELS 3 Zrotation Xrotation Yrotation
              JOINT lThumb1
              {
                OFFSET 1.2192 -0.487915 3.41376
                CHANNELS 3 Zrotation Xrotation Yrotation
                JOINT lThumb2
                {
                  OFFSET 3.37035 -0.52449 3.41376
                  CHANNELS 3 Zrotation Xrotation Yrotation
                  End Site
                  {
                    OFFSET 1.78271 -1.18214 1.43049
                  }
                }
              }
              JOINT lIndex1
              {
                OFFSET 7.75947 0.938293 5.60832
                CHANNELS 3 Zrotation Xrotation Yrotation
                JOINT lIndex2
                {
                  OFFSET 2.54057 -0.884171 1.56538
                  CHANNELS 3 Zrotation Xrotation Yrotation
                  End Site
                  {
                    OFFSET 1.62519 -0.234802 1.16502
                  }
                }
              }
              JOINT lMid1
              {
                OFFSET 8.24714 1.18213 3.41376
                CHANNELS 3 Zrotation Xrotation Yrotation
                JOINT lMid2
                {
                  OFFSET 3.10165 -0.590103 1.0647
                  CHANNELS 3 Zrotation Xrotation Yrotation
                  End Site
                  {
                    OFFSET 2.48547 -0.328903 0.83742
                  }
                }
              }
              JOINT lRing1
              {
                OFFSET 8.82822 0.546677 1.51678
                CHANNELS 3 Zrotation Xrotation Yrotation
                JOINT lRing2
                {
                  OFFSET 2.60934 -0.819778 -0.0198488
                  CHANNELS 3 Zrotation Xrotation Yrotation
                  End Site
                  {
                    OFFSET 2.33842 -0.294052 0.168128
                  }
                }
              }
              JOINT lPinky1
              {
                OFFSET 8.27202 -0.0477905 -0.4584
                CHANNELS 3 Zrotation Xrotation Yrotation
                JOINT lPinky2
                {
                  OFFSET 1.82734 -0.647385 -0.700984
                  CHANNELS 3 Zrotation Xrotation Yrotation
                  End Site
                  {
                    OFFSET 1.69225 -0.51767 -0.607171
                  }
                }
              }
            }
          }
        }
      }
    }
  }
  JOINT rButtock
  {
    OFFSET -8.77824 4.35084 1.2192
    CHANNELS 3 Zrotation Xrotation Yrotation
    JOINT rThigh
    {
      OFFSET 0 -1.70687 -2.19456
      CHANNELS 3 Zrotation Xrotation Yrotation
      JOINT rShin
      {
        OFFSET 0 -36.8199 0.73152
        CHANNELS 3 Zrotation Xrotation Yrotation
        JOINT rFoot
        {
          OFFSET 0.73152 -45.1104 -5.12064
          CHANNELS 3 Zrotation Xrotation Yrotation
          End Site
          {
            OFFSET -1.1221 -3.69964 12.103
          }
        }
      }
    }
  }
  JOINT lButtock
  {
    OFFSET 8.77824 4.35084 1.2192
    CHANNELS 3 Zrotation Xrotation Yrotation
    JOINT lThigh
    {
      OFFSET 0 -1.70687 -2.19456
      CHANNELS 3 Zrotation Xrotation Yrotation
      JOINT lShin
      {
        OFFSET 0 -36.8199 0.73152
        CHANNELS 3 Zrotation Xrotation Yrotation
        JOINT lFoot
        {
          OFFSET -0.73152 -45.1104 -5.12064
          CHANNELS 3 Zrotation Xrotation Yrotation
          End Site
          {
            OFFSET 1.1221 -3.69964 12.103
          }
        }
      }
    }
  }
}
MOTION
Frames:	7
Frame Time:	0.00833333
56.8132 84.6409 -164.881 0.1748 -69.8117 2.7839 2.67001 -1.63499 1.02815 -4.51776 -2.28555 0.332885 2.11055 12.0522 12.9282 -11.0174 -20.8244 23.1724 -0.0 0.0 0.0 -0.0 0.0 0.0 -3.24015e-14 -4.5139e-14 1.83514e-13 -9.0894 -48.6117 -15.8459 -9.26955 -3.70921 16.4384 -0.220086 13.2998 1.9034 1.14765e-09 7.50915e-09 3.53493e-09 2.01692e-09 1.30997e-08 6.09894e-09 1.14765e-09 7.50915e-09 3.53492e-09 7.73091 5.47488 0.417314 1.14765e-09 7.50914e-09 3.53492e-09 2.90554 0.965183 0.102902 1.14765e-09 7.50915e-09 3.53492e-09 10.2786 0.731801 0.0259123 1.14765e-09 7.50915e-09 3.53493e-09 2.22167 -0.733487 -0.20892 -3.24643e-14 -4.51332e-14 1.83212e-13 13.3816 -12.3626 -9.08965 10.4167 -4.39854 -18.5854 0.122211 -9.92505 1.40912 1.73258e-09 -1.32608e-08 2.46993e-09 2.98203e-09 -2.29397e-08 4.28024e-09 1.73258e-09 -1.32608e-08 2.46994e-09 -7.73091 5.47488 -0.417314 1.73258e-09 -1.32608e-08 2.46992e-09 -2.90554 0.965183 -0.102902 1.73258e-09 -1.32608e-08 2.46993e-09 -10.2786 0.731801 -0.0259123 1.73259e-09 -1.32608e-08 2.46992e-09 -2.22167 -0.733487 0.20892 -2.03217e-16 0.0 -3.88251e-19 -7.40067 6.10946 6.68001 -0.00754351 7.94389 0.0348493 -24.5535 -32.2489 -41.9389 2.03217e-16 0.0 3.88251e-19 34.0894 -17.1728 12.848 0.0712729 17.8923 -0.606691 6.52327 -7.28329 27.7874
56.7334 84.4555 -164.575 -1.3363 -69.3288 4.2311 2.48149 -1.51935 1.11868 -4.60107 -2.27753 0.360188 2.0402 11.9426 13.0309 -10.8457 -20.781 23.4116 -0.0 0.0 0.0 -0.0 0.0 0.0 -8.23954e-14 -5.76324e-14 4.42075e-13 -9.51268 -47.9588 -15.7394 -9.33966 -3.74975 16.5685 -0.184307 12.2599 1.74927 2.09525e-09 1.29048e-08 6.73265e-09 3.67987e-09 2.25001e-08 1.16171e-08 2.09526e-09 1.29048e-08 6.73265e-09 7.73091 5.47488 0.417314 2.09525e-09 1.29048e-08 6.73265e-09 2.90554 0.965183 0.102902 2.09526e-09 1.29048e-08 6.73265e-09 10.2786 0.731801 0.0259123 2.09525e-09 1.29048e-08 6.73266e-09 2.22167 -0.733487 -0.20892 -8.24398e-14 -5.76287e-14 4.41771e-13 13.6375 -12.0591 -9.14097 10.4448 -4.41611 -18.6383 0.131547 -10.2882 1.46181 2.86781e-09 -2.47638e-08 4.61495e-09 4.93127e-09 -4.28215e-08 7.99344e-09 2.86781e-09 -2.47638e-08 4.61496e-09 -7.73091 5.47488 -0.417314 2.86781e-09 -2.47638e-08 4.61495e-09 -2.90554 0.965183 -0.102902 2.86781e-09 -2.47638e-08 4.61495e-09 -10.2786 0.731801 -0.0259123 2.86781e-09 -2.47638e-08 4.61494e-09 -2.22167 -0.733487 0.20892 -2.03217e-16 0.0 -3.88251e-19 -7.24341 5.97576 5.54694 -0.00661497 8.48069 0.0656457 -23.8414 -31.9139 -41.2371 2.03217e-16 0.0 3.88251e-19 34.5154 -17.9044 13.698 0.0783005 19.4418 -0.646263 6.67583 -8.45971 26.1716
56.6687 84.2684 -164.27 -2.8897 -68.7661 5.7589 2.27252 -1.3939 1.2426 -4.69855 -2.29351 0.395017 2.02227 11.8492 13.0815 -10.7142 -20.7636 23.5364 -0.0 0.0 0.0 -0.0 0.0 0.0 -1.18806e-13 7.29235e-15 7.03915e-13 -9.93244 -47.1132 -15.6749 -9.41758 -3.79493 16.7136 -0.150775 11.0925 1.57837 3.21617e-09 1.8563e-08 9.81463e-09 5.64096e-09 3.23466e-08 1.69337e-08 3.21618e-09 1.8563e-08 9.81462e-09 7.73091 5.47488 0.417314 3.21616e-09 1.8563e-08 9.81462e-09 2.90554 0.965183 0.102902 3.21617e-09 1.8563e-08 9.81463e-09 10.2786 0.731801 0.0259123 3.21617e-09 1.8563e-08 9.81464e-09 2.22167 -0.733487 -0.20892 -1.18832e-13 7.29383e-15 7.03612e-13 13.9321 -11.7235 -9.2458 10.4744 -4.43466 -18.6941 0.142656 -10.7023 1.52205 4.12829e-09 -3.61009e-08 6.6455e-09 7.0973e-09 -6.2424e-08 1.15101e-08 4.12829e-09 -3.61009e-08 6.64551e-09 -7.73091 5.47488 -0.417314 4.12829e-09 -3.61009e-08 6.6455e-09 -2.90554 0.965183 -0.102902 4.12829e-09 -3.61009e-08 6.6455e-09 -10.2786 0.731801 -0.0259123 4.1283e-09 -3.61009e-08 6.64549e-09 -2.22167 -0.733487 0.20892 -2.03217e-16 0.0 -3.88251e-19 -7.05511 5.8176 4.411 -0.00576432 9.03995 0.0980058 -23.1688 -31.5883 -40.5583 2.03217e-16 0.0 3.88251e-19 34.9807 -18.6748 14.5477 0.0855934 20.9801 -0.689117 6.83552 -9.79876 24.5874
56.6126 84.0692 -163.945 -4.1828 -68.2324 7.0896 2.10378 -1.25399 1.34575 -4.78773 -2.34438 0.421155 2.04065 11.7897 13.1157 -10.6331 -20.7997 23.6139 -0.0 0.0 0.0 -0.0 0.0 0.0 -1.17652e-13 2.05146e-13 9.00296e-13 -10.3627 -46.471 -15.5883 -9.48785 -3.83586 16.8445 -0.129938 10.2237 1.45245 4.38652e-09 2.30239e-08 1.17204e-08 7.67751e-09 4.00881e-08 2.02173e-08 4.38653e-09 2.30239e-08 1.17204e-08 7.73091 5.47488 0.417314 4.38652e-09 2.30239e-08 1.17204e-08 2.90554 0.965183 0.102902 4.38653e-09 2.30239e-08 1.17204e-08 10.2786 0.731801 0.0259123 4.38652e-09 2.30239e-08 1.17204e-08 2.22167 -0.733487 -0.20892 -1.17667e-13 2.05146e-13 8.99998e-13 14.2409 -11.3747 -9.3487 10.5042 -4.45342 -18.7505 0.154747 -11.1429 1.58628 5.32385e-09 -4.36631e-08 7.7822e-09 9.15592e-09 -7.55181e-08 1.34826e-08 5.32385e-09 -4.36631e-08 7.78221e-09 -7.73091 5.47488 -0.417314 5.32385e-09 -4.36631e-08 7.7822e-09 -2.90554 0.965183 -0.102902 5.32385e-09 -4.36631e-08 7.7822e-09 -10.2786 0.731801 -0.0259123 5.32385e-09 -4.36631e-08 7.78219e-09 -2.22167 -0.733487 0.20892 -2.03217e-16 0.0 -3.88251e-19 -6.74038 5.61588 3.34566 -0.00491519 9.6137 0.131251 -22.6194 -31.3999 -39.9103 2.03217e-16 0.0 3.88251e-19 35.5777 -19.5357 15.4741 0.0947889 22.5325 -0.726469 6.84743 -10.8669 23.1446
56.5536 83.8651 -163.616 -5.3801 -67.7186 8.3006 2.00375 -1.11712 1.41484 -4.86487 -2.44716 0.43355 2.11886 11.7701 13.1292 -10.6415 -20.8882 23.6268 -0.0 0.0 0.0 -0.0 0.0 0.0 -5.25153e-14 6.94371e-13 1.04764e-12 -10.8188 -46.1414 -15.4867 -9.54711 -3.8706 16.9549 -0.120305 9.79316 1.39028 6.06079e-09 2.69074e-08 1.22463e-08 1.05725e-08 4.67804e-08 2.11121e-08 6.06081e-09 2.69074e-08 1.22463e-08 7.73091 5.47488 0.417314 6.06079e-09 2.69074e-08 1.22463e-08 2.90554 0.965183 0.102902 6.0608e-09 2.69074e-08 1.22463e-08 10.2786 0.731801 0.0259123 6.06079e-09 2.69074e-08 1.22463e-08 2.22167 -0.733487 -0.20892 -5.25276e-14 6.9437e-13 1.04735e-12 14.6088 -10.9079 -9.4528 10.5394 -4.47568 -18.817 0.171337 -11.7335 1.67259 6.83802e-09 -4.75812e-08 7.8052e-09 1.17707e-08 -8.23514e-08 1.35345e-08 6.83802e-09 -4.75812e-08 7.80521e-09 -7.73091 5.47488 -0.417314 6.83802e-09 -4.75812e-08 7.8052e-09 -2.90554 0.965183 -0.102902 6.83801e-09 -4.75812e-08 7.8052e-09 -10.2786 0.731801 -0.0259123 6.83802e-09 -4.75812e-08 7.8052e-09 -2.22167 -0.733487 0.20892 -2.03217e-16 0.0 -3.88251e-19 -6.21529 5.33261 2.39039 -0.00437572 10.2012 0.165735 -22.2584 -31.4558 -39.2975 2.03217e-16 0.0 3.88251e-19 36.3921 -20.5492 16.5598 0.105513 24.1371 -0.755516 6.69186 -11.4825 21.8896
56.4889 83.6496 -163.334 -7.1656 -67.1137 9.9853 1.936 -0.979504 1.47835 -4.94118 -2.59135 0.441096 2.256 11.7806 13.1076 -10.7222 -21.0176 23.551 -0.0 0.0 0.0 -0.0 0.0 0.0 5.71398e-14 1.39748e-12 1.17102e-12 -11.2876 -45.9119 -15.3941 -9.60338 -3.90377 17.0598 -0.114782 9.56498 1.35727 8.14255e-09 3.06557e-08 1.19316e-08 1.41639e-08 5.32053e-08 2.05508e-08 8.14256e-09 3.06557e-08 1.19316e-08 7.73091 5.47488 0.417314 8.14255e-09 3.06557e-08 1.19316e-08 2.90554 0.965183 0.102902 8.14255e-09 3.06557e-08 1.19316e-08 10.2786 0.731801 0.0259123 8.14254e-09 3.06557e-08 1.19316e-08 2.22167 -0.733487 -0.20892 5.71248e-14 1.39748e-12 1.17074e-12 15.0333 -10.3497 -9.58191 10.5788 -4.50066 -18.8914 0.193114 -12.4437 1.77701 8.62747e-09 -4.94157e-08 7.13418e-09 1.48647e-08 -8.56098e-08 1.23903e-08 8.62747e-09 -4.94157e-08 7.13419e-09 -7.73091 5.47488 -0.417314 8.62747e-09 -4.94157e-08 7.13418e-09 -2.90554 0.965183 -0.102902 8.62746e-09 -4.94157e-08 7.13418e-09 -10.2786 0.731801 -0.0259123 8.62747e-09 -4.94157e-08 7.13418e-09 -2.22167 -0.733487 0.20892 -2.03217e-16 0.0 -3.88251e-19 -5.5537 4.98968 1.49969 -0.00420657 10.8062 0.201685 -22.0175 -31.6683 -38.7092 2.03217e-16 0.0 3.88251e-19 37.3735 -21.6635 17.7533 0.116683 25.7701 -0.781088 6.47512 -11.886 20.7567
56.4426 83.4344 -163.109 -9.2474 -66.4184 11.9582 1.86402 -0.804644 1.5449 -5.01662 -2.74651 0.448498 2.39957 11.8147 13.0712 -10.8005 -21.1991 23.4438 -0.0 0.0 0.0 -0.0 0.0 0.0 1.66472e-13 2.0161e-12 1.21469e-12 -11.7427 -45.6957 -15.2696 -9.65839 -3.93635 17.1624 -0.110238 9.40268 1.33368 9.68153e-09 3.25425e-08 1.083e-08 1.68115e-08 5.6401e-08 1.86342e-08 9.68154e-09 3.25425e-08 1.083e-08 7.73091 5.47488 0.417314 9.68153e-09 3.25425e-08 1.083e-08 2.90554 0.965183 0.102902 9.68153e-09 3.25425e-08 1.083e-08 10.2786 0.731801 0.0259123 9.68152e-09 3.25425e-08 1.083e-08 2.22167 -0.733487 -0.20892 1.66449e-13 2.0161e-12 1.21442e-12 15.4158 -9.9165 -9.7112 10.6118 -4.52157 -18.9538 0.212399 -13.0185 1.86208 9.86175e-09 -4.77017e-08 5.94903e-09 1.70024e-08 -8.27219e-08 1.03536e-08 9.86175e-09 -4.77017e-08 5.94904e-09 -7.73091 5.47488 -0.417314 9.86175e-09 -4.77017e-08 5.94903e-09 -2.90554 0.965183 -0.102902 9.86174e-09 -4.77017e-08 5.94903e-09 -10.2786 0.731801 -0.0259123 9.86176e-09 -4.77017e-08 5.94902e-09 -2.22167 -0.733487 0.20892 -2.03217e-16 0.0 -3.88251e-19 -4.89446 4.65802 0.619343 -0.00389864 11.4276 0.238217 -21.7813 -31.8726 -38.1295 2.03217e-16 0.0 3.88251e-19 38.4025 -22.7624 18.927 0.128266 27.3635 -0.80557 6.25625 -12.2667 19.6836
